<?xml version="1.0" standalone="no"?>
<!DOCTYPE svg PUBLIC "-//W3C//DTD SVG 20010904//EN"
 "http://www.w3.org/TR/2001/REC-SVG-20010904/DTD/svg10.dtd">
<svg version="1.0" xmlns="http://www.w3.org/2000/svg"
 width="1624.000000pt" height="1624.000000pt" viewBox="0 0 1624.000000 1624.000000"
 preserveAspectRatio="xMidYMid meet">
<metadata>
Created by potrace 1.11, written by Peter Selinger 2001-2013
</metadata>
<g transform="translate(0.000000,1624.000000) scale(0.100000,-0.100000)"
fill="#000000" stroke="none">
<path d="M12315 16226 c-27 -7 -2617 -1045 -5755 -2306 -3138 -1260 -5851
-2350 -6029 -2421 -334 -133 -417 -177 -458 -238 l-23 -34 0 -4430 0 -4430 43
-41 c40 -38 3575 -2246 3641 -2274 55 -23 195 -52 254 -52 31 0 84 7 117 15
33 8 75 14 93 15 20 0 2350 928 5973 2380 3266 1309 5944 2380 5949 2380 6 0
20 19 30 42 19 42 20 119 20 4456 0 3962 2 4419 16 4467 20 71 7 122 -46 175
-47 47 -99 75 -177 95 -67 18 -211 20 -268 4 -22 -6 -2314 -930 -5095 -2054
-6943 -2806 -6555 -2650 -6583 -2633 -12 8 -660 416 -1440 908 -779 491 -1417
896 -1417 900 0 3 2584 1052 5742 2331 3157 1278 5764 2338 5791 2354 72 43
109 93 115 154 2 29 -1 64 -8 81 -15 36 -75 92 -129 120 -92 46 -250 62 -356
36z m2210 -4845 c163 -34 290 -100 402 -209 124 -121 117 -265 -18 -400 -30
-30 -84 -72 -120 -93 -37 -22 -1752 -723 -3950 -1615 l-3884 -1575 -144 -19
c-171 -24 -256 -25 -376 -5 -175 28 -312 89 -409 181 -132 126 -133 263 -5
399 29 31 85 76 123 100 50 31 1228 513 3970 1624 2145 870 3924 1588 3953
1597 132 38 316 44 458 15z m40 -2420 c134 -35 254 -101 345 -189 69 -67 81
-84 96 -136 14 -50 15 -68 5 -110 -24 -106 -124 -212 -264 -283 -39 -19 -1811
-741 -3937 -1602 l-3865 -1567 -131 -17 c-229 -30 -396 -18 -556 39 -138 49
-254 135 -302 224 -83 152 16 329 249 447 46 24 7743 3146 7825 3175 150 52
376 60 535 19z m500 -2212 c113 -14 251 -57 335 -106 35 -21 97 -70 136 -108
61 -60 75 -79 89 -128 19 -64 15 -105 -15 -174 -40 -91 -174 -200 -322 -261
-40 -17 -1799 -730 -3908 -1585 -2505 -1016 -3856 -1559 -3895 -1566 -170 -29
-370 -22 -533 20 -164 41 -334 154 -383 255 -64 134 18 301 203 410 67 39
7801 3179 7915 3214 123 36 241 46 378 29z"/>
<path d="M13594 15561 c-17 -4 -69 -24 -115 -44 -46 -19 -2437 -983 -5314
-2141 l-5230 -2107 -77 -80 c-43 -44 -81 -91 -84 -105 -9 -37 11 -96 43 -126
16 -14 316 -209 668 -434 584 -373 649 -411 740 -443 93 -32 108 -34 217 -33
112 1 121 2 215 40 5348 2165 10461 4241 10502 4265 29 18 71 52 92 76 36 41
39 48 39 104 0 60 -1 62 -48 106 -37 35 -963 636 -1351 877 -75 47 -206 66
-297 45z"/>
</g>
</svg>
